<svg width="20" height="20" viewBox="0 0 20 20" fill="none" xmlns="http://www.w3.org/2000/svg">
<g id="ic_arbitrum 1" clip-path="url(#clip0_744_1169)">
<path id="Vector" d="M12.0698 9.16341L13.5385 6.67131L17.4973 12.8373L17.4992 14.0203L17.4862 5.87759C17.4816 5.77941 17.4534 5.68372 17.404 5.59868C17.3547 5.51363 17.2856 5.44172 17.2026 5.38904L10.0753 1.28955C9.99014 1.24909 9.89696 1.22831 9.80269 1.22875C9.70841 1.2292 9.61546 1.25085 9.53069 1.29211C9.50869 1.30314 9.48737 1.31547 9.46682 1.32902L9.44205 1.34471L2.52368 5.35368L2.49674 5.36577C2.46088 5.38241 2.42667 5.40236 2.39455 5.42536C2.2648 5.51804 2.17637 5.65768 2.14812 5.81459C2.1438 5.83841 2.14085 5.86245 2.13928 5.88659L2.15012 12.522L5.83755 6.80672C6.30178 6.04891 7.31328 5.80477 8.25223 5.81804L9.35423 5.84654L2.86076 16.26L3.62626 16.7007L10.1975 5.85695L13.1021 5.84641L6.54778 16.9634L9.27941 18.5355L9.60578 18.7232C9.7466 18.7791 9.90287 18.7822 10.0458 18.7319L17.2733 14.5435L15.8908 15.3442L12.0698 9.16341ZM12.6302 17.2342L9.87146 12.9044L11.5554 10.0469L15.1784 15.7574L12.6302 17.2342Z" fill="#2D374B"/>
<path id="Vector_2" d="M9.87146 12.9045L12.6302 17.2341L15.1786 15.7572L11.5557 10.047L9.87146 12.9045Z" fill="#28A0F0"/>
<path id="Vector_3" d="M17.4996 14.0204L17.4977 12.8375L13.5389 6.67146L12.0693 9.16327L15.891 15.344L17.2735 14.5433C17.3405 14.4891 17.3952 14.4213 17.4342 14.3445C17.4732 14.2676 17.4955 14.1834 17.4997 14.0974L17.4996 14.0204Z" fill="#28A0F0"/>
<path id="Vector_4" d="M0.90979 15.1364L2.86112 16.2608L9.35462 5.84727L8.25258 5.81877C7.31362 5.8055 6.30212 6.0495 5.83789 6.80745L2.15048 12.5228L0.910504 14.4288V15.137L0.90979 15.1364Z" fill="white"/>
<path id="Vector_5" d="M13.1023 5.84709L10.1979 5.85764L3.62659 16.7015L5.9234 18.024L6.54795 16.9646L13.1023 5.84709Z" fill="white"/>
<path id="Vector_6" d="M18.723 5.83214C18.7096 5.53241 18.6236 5.24041 18.4724 4.98132C18.3211 4.72223 18.1091 4.50379 17.8546 4.34489L10.6339 0.192538C10.3761 0.0658673 10.0927 0 9.80551 0C9.51833 0 9.23492 0.0658673 8.97719 0.192538C8.91688 0.222896 1.9552 4.26052 1.9552 4.26052C1.85847 4.30696 1.76596 4.3617 1.6787 4.42414C1.45265 4.58491 1.26596 4.79477 1.13266 5.038C0.999362 5.28127 0.922912 5.55155 0.909058 5.82859V14.4283L2.14903 12.5223L2.13948 5.88718C2.14528 5.79618 2.17119 5.70764 2.21533 5.62791C2.25947 5.54814 2.32075 5.47918 2.39475 5.42595C2.42753 5.40245 9.5081 1.30395 9.5306 1.2927C9.61538 1.25144 9.70833 1.22978 9.8026 1.22934C9.89688 1.2289 9.99006 1.24967 10.0752 1.29013L17.2025 5.38991C17.2855 5.44259 17.3546 5.5145 17.404 5.59955C17.4533 5.68459 17.4815 5.78027 17.4861 5.87845V14.0982C17.4844 14.1835 17.4645 14.2673 17.4277 14.3442C17.391 14.4211 17.3383 14.4893 17.2731 14.5442L15.8906 15.3449L15.1779 15.7582L12.6296 17.2351L10.0451 18.7329C9.90224 18.7833 9.74592 18.7802 9.60515 18.7242L6.54751 16.9656L5.92297 18.0248L8.67088 19.6069C8.76183 19.6585 8.84278 19.7044 8.90919 19.7417C9.0121 19.7987 9.08219 19.8379 9.10688 19.8499C9.33678 19.9506 9.58533 20.0018 9.83633 20C10.0665 20.0003 10.2947 19.9574 10.5091 19.8734L18.0155 15.5264C18.2272 15.3616 18.4003 15.1525 18.5225 14.9136C18.6447 14.6747 18.713 14.412 18.7227 14.1439L18.723 5.83214Z" fill="#96BEDC"/>
</g>
<defs>
<clipPath id="clip0_744_1169">
<rect width="20" height="20" fill="white"/>
</clipPath>
</defs>
</svg>
