<svg width="60" height="60" viewBox="0 0 60 60" fill="none" xmlns="http://www.w3.org/2000/svg">
<rect x="9.67737" width="39.3548" height="43.2903" rx="19.6774" fill="url(#paint0_linear_3164_21537)"/>
<rect x="16.4517" y="4.83868" width="26.129" height="35.8064" rx="13.0645" fill="#1B1D24"/>
<rect y="17.4194" width="59.0323" height="42.5806" rx="12" fill="url(#paint1_linear_3164_21537)"/>
<path d="M44.0782 36.8587C43.7493 36.8505 43.423 36.9187 43.1245 37.0581L31.6717 25.5816C31.804 25.2793 31.8756 24.9537 31.8825 24.6234C31.8796 23.9967 31.63 23.3968 31.1884 22.9554C30.9703 22.7343 30.7109 22.5589 30.4252 22.4392C30.1395 22.3195 29.8332 22.2578 29.5238 22.2578C29.2144 22.2578 28.9081 22.3195 28.6224 22.4392C28.3367 22.5589 28.0774 22.7343 27.8592 22.9554C27.4176 23.3968 27.168 23.9967 27.1651 24.6234C27.1572 24.9539 27.2249 25.2817 27.3631 25.5816L15.8974 37.0193C15.5944 36.8913 15.2697 36.8235 14.9411 36.8199C14.318 36.8209 13.7203 37.0693 13.2778 37.5114C13.057 37.7275 12.8815 37.986 12.7617 38.2716C12.6418 38.5572 12.5801 38.8641 12.5801 39.1742C12.5801 39.4843 12.6418 39.7913 12.7617 40.0769C12.8815 40.3625 13.057 40.6211 13.2778 40.8371C13.7189 41.2807 14.3153 41.5318 14.9385 41.5363C15.2684 41.5459 15.5959 41.4776 15.8949 41.3369L27.3502 52.8186C27.2219 53.1208 27.1546 53.4457 27.1523 53.7743C27.1525 54.0846 27.2137 54.3918 27.3324 54.6781C27.4511 54.9644 27.6249 55.2241 27.8438 55.4423C28.1741 55.7706 28.593 55.9938 29.0483 56.084C29.5036 56.1742 29.9751 56.1275 30.4042 55.9497C30.8333 55.7719 31.2011 55.4708 31.4617 55.084C31.7222 54.6972 31.8641 54.2418 31.8696 53.7743C31.879 53.4445 31.8112 53.1171 31.6717 52.8186L43.1373 41.3369C43.439 41.4664 43.7632 41.5342 44.0911 41.5363C44.7145 41.537 45.3129 41.2889 45.7551 40.8462C46.1974 40.4035 46.4476 39.8023 46.451 39.1742C46.4478 38.8665 46.384 38.5627 46.2636 38.2799C46.1431 37.9972 45.9683 37.7413 45.7492 37.527C45.302 37.0901 44.7011 36.8498 44.0782 36.8587ZM41.8751 38.3843L37.4225 39.4643C37.2291 39.1999 36.9774 38.9844 36.6873 38.8349C36.3968 38.684 36.0757 38.6025 35.7489 38.5966C35.2685 38.5946 34.803 38.7644 34.4353 39.0758L31.5406 37.7291V37.6591C31.5423 37.2656 31.4292 36.8803 31.2153 36.551C31.0013 36.2218 30.6961 35.963 30.3375 35.8071V26.8353C30.3683 26.8353 30.3966 26.8067 30.4274 26.8067L41.8905 38.2884C41.8797 38.3176 41.8728 38.3481 41.8699 38.3791L41.8751 38.3843ZM29.5148 51.4485H29.3374L24.8591 41.9715C25.1688 41.6042 25.3384 41.1377 25.3373 40.6558L28.2603 39.2804C28.621 39.5704 29.0688 39.7284 29.5302 39.7284C29.9917 39.7284 30.4395 39.5704 30.8002 39.2804L33.7283 40.6454V40.6738C33.7261 41.156 33.8958 41.6229 34.2065 41.9896L29.6691 51.4381L29.5148 51.4485ZM28.6433 26.843V35.815C28.291 35.9808 27.9911 36.2416 27.777 36.5686C27.5651 36.8956 27.4492 37.2764 27.4428 37.6668V37.7264L24.5481 39.0706C24.1798 38.7602 23.7146 38.5905 23.2344 38.5914C22.9066 38.5933 22.584 38.6742 22.2935 38.8272C22.0036 38.9798 21.7548 39.2012 21.5686 39.4721L17.1597 38.3946C17.1597 38.3662 17.1314 38.3351 17.1314 38.2755L28.5868 26.7861C28.5868 26.8068 28.6125 26.8068 28.6433 26.8353V26.843ZM17.1211 40.1506L21.2703 41.1659C21.3824 41.6128 21.6405 42.0088 22.003 42.2901C22.3674 42.5711 22.8141 42.7223 23.273 42.72H23.3038L26.5867 49.6562L17.1211 40.1506ZM35.7181 42.72H35.7489C36.2068 42.7177 36.6512 42.564 37.0137 42.2822C37.3757 42.0028 37.6353 41.6101 37.7516 41.1659L41.9008 40.1506V40.1792L32.4429 49.6483L35.7181 42.72Z" fill="#101116"/>
<defs>
<linearGradient id="paint0_linear_3164_21537" x1="0.322687" y1="21.6539" x2="58.8711" y2="21.6539" gradientUnits="userSpaceOnUse">
<stop stop-color="#00A9F4"/>
<stop offset="0.93" stop-color="#16EDE2"/>
</linearGradient>
<linearGradient id="paint1_linear_3164_21537" x1="0.00184953" y1="38.7183" x2="59.0099" y2="38.7183" gradientUnits="userSpaceOnUse">
<stop stop-color="#00A9F4"/>
<stop offset="0.93" stop-color="#16EDE2"/>
</linearGradient>
</defs>
</svg>

