<svg width="24" height="24" viewBox="0 0 24 24" fill="none" xmlns="http://www.w3.org/2000/svg">
<path d="M22.3281 10.3372C22.0952 10.3372 21.8624 10.3795 21.6508 10.4854L13.5238 2.35128C13.6085 2.13945 13.672 1.92763 13.672 1.67344C13.672 0.741394 12.9101 0 12 0C11.0899 0 10.328 0.762577 10.328 1.67344C10.328 1.90644 10.3704 2.13945 10.4762 2.35128L2.3492 10.4643C2.13756 10.3795 1.92592 10.316 1.67196 10.316C0.740741 10.316 0 11.0786 0 11.9894C0 12.9003 0.761905 13.6628 1.67196 13.6628C1.90476 13.6628 2.13756 13.6205 2.3492 13.5146L10.4762 21.6487C10.3915 21.8606 10.328 22.0723 10.328 22.3265C10.328 23.2586 11.0899 24 12 24C12.9101 24 13.672 23.2374 13.672 22.3265C13.672 22.0935 13.6296 21.8606 13.5238 21.6487L21.6508 13.5146C21.8624 13.5993 22.074 13.6628 22.3281 13.6628C23.2593 13.6628 24 12.9003 24 11.9894C24 11.0786 23.2593 10.3372 22.3281 10.3372ZM20.7618 11.4175L17.6085 12.1801C17.3334 11.8199 16.9101 11.5658 16.4232 11.5658C16.0635 11.5658 15.746 11.6929 15.4921 11.9047L13.4391 10.9515C13.4391 10.9303 13.4391 10.9303 13.4391 10.9091C13.4391 10.316 13.1005 9.82877 12.5926 9.59577V3.24095C12.6138 3.24095 12.6349 3.21978 12.6561 3.21978L20.783 11.3539C20.783 11.3539 20.7618 11.3963 20.7618 11.4175ZM12 20.6744C11.9577 20.6744 11.9153 20.6744 11.873 20.6744L8.69841 13.9594C8.91005 13.7052 9.03704 13.3875 9.03704 13.0274L11.1111 12.053C11.3651 12.2436 11.6825 12.3707 12 12.3707C12.3386 12.3707 12.6561 12.2436 12.9101 12.053L14.9841 13.0274C14.9841 13.0274 14.9841 13.0274 14.9841 13.0485C14.9841 13.4086 15.1111 13.7264 15.3228 13.9806L12.1058 20.6744C12.0847 20.6744 12.0423 20.6744 12 20.6744ZM11.3862 3.24095V9.59577C10.8995 9.82877 10.5397 10.3372 10.5397 10.9091C10.5397 10.9303 10.5397 10.9515 10.5397 10.9515L8.48677 11.9047C8.23281 11.6929 7.91534 11.5658 7.55556 11.5658C7.06878 11.5658 6.6455 11.7988 6.37037 12.1801L3.2381 11.4175C3.2381 11.3963 3.21694 11.3751 3.21694 11.3327L11.3439 3.19859C11.3439 3.21978 11.3651 3.21978 11.3862 3.24095ZM3.21694 12.6673L6.15873 13.3875C6.32805 14.0229 6.8783 14.4889 7.57671 14.4889H7.59789L9.92593 19.4034L3.21694 12.6673ZM16.4021 14.4889H16.4232C17.1005 14.4889 17.672 14.0229 17.8412 13.3875L20.783 12.6673C20.783 12.6673 20.783 12.6673 20.783 12.6884L14.0741 19.4034L16.4021 14.4889Z" fill="url(#paint0_linear_340_729)"/>
<defs>
<linearGradient id="paint0_linear_340_729" x1="0" y1="12.0091" x2="23.997" y2="12.0091" gradientUnits="userSpaceOnUse">
<stop stop-color="#0BADF4"/>
<stop offset="0.9341" stop-color="#30EFE4"/>
</linearGradient>
</defs>
</svg>
