<svg width="20" height="20" viewBox="0 0 20 20" fill="none" xmlns="http://www.w3.org/2000/svg">
<g id="Dei 1">
<path id="Vector" d="M16.852 7.95907H18.75V6.27816H15.7766C15.1686 5.25057 14.3186 4.40224 13.3075 3.81389C12.2963 3.22553 11.1576 2.91666 9.99971 2.91666C8.84179 2.91666 7.70313 3.22553 6.692 3.81389C5.68083 4.40224 4.83083 5.25057 4.22279 6.27816H1.25V7.95907H3.49501C3.11534 9.27657 3.11137 10.6808 3.48359 12.0007H1.25V13.6816H4.19883C4.80433 14.7202 5.65608 15.5787 6.67208 16.1745C7.68808 16.7704 8.83408 17.0833 9.99971 17.0833C11.1653 17.0833 12.3113 16.7704 13.3273 16.1745C14.3433 15.5787 15.1951 14.7202 15.8006 13.6816H18.75V12.0007H16.5164C16.8889 10.6808 16.8847 9.27645 16.5044 7.95907H16.852ZM10.0023 14.7024C9.11042 14.7024 8.23854 14.4266 7.497 13.9099C6.75542 13.3932 6.17742 12.6588 5.83612 11.7996C5.49479 10.9404 5.4055 9.99486 5.5795 9.08274C5.7535 8.17057 6.183 7.3327 6.81362 6.67507C7.44429 6.01745 8.24779 5.56957 9.12254 5.38816C9.99729 5.2067 10.904 5.29982 11.728 5.65574C12.552 6.01166 13.2562 6.61437 13.7517 7.38766C14.2472 8.16091 14.5117 9.07007 14.5117 10.0001C14.5103 11.2472 14.0345 12.4428 13.1886 13.3244C12.3427 14.206 11.196 14.7016 10 14.7024H10.0023ZM10.0023 8.37928C10.3097 8.37928 10.6102 8.47436 10.8658 8.65245C11.1214 8.83053 11.3207 9.08366 11.4383 9.37982C11.5559 9.67599 11.5867 10.0019 11.5267 10.3163C11.4667 10.6307 11.3187 10.9195 11.1014 11.1462C10.884 11.3729 10.607 11.5272 10.3055 11.5897C10.004 11.6523 9.6915 11.6202 9.40746 11.4975C9.12346 11.3748 8.88071 11.1671 8.70992 10.9006C8.53912 10.634 8.44796 10.3207 8.44796 10.0001C8.44796 9.57066 8.61142 9.15874 8.90242 8.85486C9.19342 8.55095 9.58817 8.37991 10 8.37928H10.0023Z" fill="#BAA084"/>
</g>
</svg>
