<svg width="20" height="17" viewBox="0 0 20 17" fill="none" xmlns="http://www.w3.org/2000/svg">
<path d="M18.033 7.5921C17.8519 7.5921 17.6709 7.61955 17.5063 7.68821L11.1853 2.41606C11.2511 2.27877 11.3005 2.14148 11.3005 1.97673C11.3005 1.37262 10.7079 0.89209 10.0001 0.89209C9.29226 0.89209 8.69967 1.38635 8.69967 1.97673C8.69967 2.12774 8.73259 2.27877 8.81489 2.41606L2.49391 7.67448C2.3293 7.61955 2.16469 7.57837 1.96716 7.57837C1.24288 7.57837 0.666748 8.07264 0.666748 8.663C0.666748 9.25338 1.25934 9.74764 1.96716 9.74764C2.14823 9.74764 2.3293 9.72018 2.49391 9.65152L8.81489 14.9237C8.74905 15.061 8.69967 15.1982 8.69967 15.363C8.69967 15.9671 9.29226 16.4476 10.0001 16.4476C10.7079 16.4476 11.3005 15.9534 11.3005 15.363C11.3005 15.2119 11.2676 15.061 11.1853 14.9237L17.5063 9.65152C17.6709 9.70645 17.8354 9.74764 18.033 9.74764C18.7573 9.74764 19.3334 9.25338 19.3334 8.663C19.3334 8.07264 18.7573 7.5921 18.033 7.5921ZM16.8149 8.29231L14.3622 8.78657C14.1483 8.55316 13.819 8.38841 13.4404 8.38841C13.1606 8.38841 12.9136 8.47079 12.7161 8.60809L11.1194 7.99026C11.1194 7.97652 11.1194 7.97652 11.1194 7.9628C11.1194 7.57837 10.8561 7.26259 10.461 7.11157V2.99271C10.4775 2.99271 10.4939 2.97898 10.5104 2.97898L16.8313 8.25112C16.8313 8.25112 16.8149 8.27858 16.8149 8.29231ZM10.0001 14.2921C9.96716 14.2921 9.93424 14.2921 9.90131 14.2921L7.43218 9.93985C7.59679 9.77509 7.69555 9.56915 7.69555 9.33575L9.30872 8.70419C9.50626 8.82776 9.75316 8.91013 10.0001 8.91013C10.2635 8.91013 10.5104 8.82776 10.7079 8.70419L12.321 9.33575C12.321 9.33575 12.321 9.33575 12.321 9.34948C12.321 9.58288 12.4198 9.78883 12.5845 9.95358L10.0824 14.2921C10.0659 14.2921 10.033 14.2921 10.0001 14.2921ZM9.52271 2.99271V7.11157C9.14411 7.26259 8.86428 7.5921 8.86428 7.9628C8.86428 7.97652 8.86428 7.99026 8.86428 7.99026L7.26757 8.60809C7.07004 8.47079 6.82313 8.38841 6.54329 8.38841C6.16469 8.38841 5.83547 8.53944 5.62148 8.78657L3.18527 8.29231C3.18527 8.27858 3.16881 8.26484 3.16881 8.23739L9.4898 2.96525C9.4898 2.97898 9.50626 2.97898 9.52271 2.99271ZM3.16881 9.10235L5.45687 9.56915C5.58856 9.98104 6.01654 10.283 6.55975 10.283H6.57622L8.38692 13.4683L3.16881 9.10235ZM13.4239 10.283H13.4404C13.9671 10.283 14.4116 9.98104 14.5433 9.56915L16.8313 9.10235C16.8313 9.10235 16.8313 9.10235 16.8313 9.11607L11.6132 13.4683L13.4239 10.283Z" fill="url(#paint0_linear_1421_1770)"/>
<defs>
<linearGradient id="paint0_linear_1421_1770" x1="0.666748" y1="8.67576" x2="19.3311" y2="8.67576" gradientUnits="userSpaceOnUse">
<stop stop-color="#0BADF4"/>
<stop offset="0.9341" stop-color="#30EFE4"/>
</linearGradient>
</defs>
</svg>
