<svg width="164" height="34" viewBox="0 0 164 34" fill="none" xmlns="http://www.w3.org/2000/svg">
<path d="M42.8611 8.14726H33.3921V0.000141048H42.8611V8.14726ZM9.62714 33.9991H18.988V12.9123H9.62714V33.9991ZM106.665 0.183941L106.539 -0.000851127H98.5653V8.14627H112.023L106.665 0.183941ZM0 8.14726H28.6001V0.000141048H0V8.14726ZM117.898 16.8716L115.231 12.9092H98.5653V33.996H108.034V17.1672L119.349 33.8172L119.473 33.9991H127.352V0.000141048H117.898V16.8716ZM68.8258 8.14726H92.7359V0.00113322H68.8258V8.14726ZM53.5445 12.9102H33.3921V33.997H42.8611V21.0686H53.5445V33.994H62.9985V-0.00494385H53.5405L53.5445 12.9102ZM152.905 0.622855L152.697 0.000141048H141.198L138.595 7.84353L142.509 6.16514L156.163 10.5338L142.509 14.9026L137.033 12.5526L129.899 34.0083H140.05L142.832 24.9995H151.063L153.845 34.0083H164L152.905 0.622855ZM78.2957 21.0727H88.5537V12.9092H68.8288V33.9981H92.739V25.8519H78.2988L78.2957 21.0727Z" fill="url(#paint0_linear_6_1408)"/>
<defs>
<linearGradient id="paint0_linear_6_1408" x1="164.328" y1="12.8861" x2="90.4964" y2="98.6797" gradientUnits="userSpaceOnUse">
<stop stop-color="#ED00C9"/>
<stop offset="1" stop-color="#BD00ED"/>
</linearGradient>
</defs>
</svg>
